<?xml version="1.0" standalone="no"?>
<!DOCTYPE svg PUBLIC "-//W3C//DTD SVG 20010904//EN"
 "http://www.w3.org/TR/2001/REC-SVG-20010904/DTD/svg10.dtd">
<svg version="1.0" xmlns="http://www.w3.org/2000/svg"
 width="96.000000pt" height="96.000000pt" viewBox="0 0 96.000000 96.000000"
 preserveAspectRatio="xMidYMid meet">
<metadata>
Created by potrace 1.11, written by Peter Selinger 2001-2013
</metadata>
<g transform="translate(0.000000,96.000000) scale(0.100000,-0.100000)"
fill="#000000" stroke="none">
<path d="M380 949 c-19 -5 -40 -11 -45 -12 -6 -1 -37 -16 -70 -31 -75 -37
-172 -134 -207 -206 -42 -88 -50 -121 -52 -220 -4 -198 135 -389 328 -451 74
-24 178 -32 236 -17 19 5 42 10 51 13 59 14 141 65 202 127 37 37 67 74 67 81
0 7 6 19 12 25 7 7 22 43 34 80 79 246 -60 516 -306 597 -62 20 -197 28 -250
14z"/>
</g>
</svg>
