<?xml version="1.0" encoding="utf-8"?>
<!-- Generator: Adobe Illustrator 23.0.4, SVG Export Plug-In . SVG Version: 6.00 Build 0)  -->
<svg version="1.1" xmlns="http://www.w3.org/2000/svg" xmlns:xlink="http://www.w3.org/1999/xlink" x="0px" y="0px" width="757.4px"
	 height="124.1px" viewBox="0 0 757.4 124.1" style="enable-background:new 0 0 757.4 124.1;" xml:space="preserve">
<style type="text/css">
	.gocontractor-white{fill:#FFFFFF;}
	.gocontractor-blue{fill:#2978AB;}
</style>
<g id="Layer_1">
</g>
<g id="Layer_2">
</g>
<g id="Layer_3">
</g>
<g id="Layer_4">
</g>
<g id="Layer_5">
</g>
<g id="Layer_6">
</g>
<g id="Layer_7">
</g>
<g id="Layer_8">
	<g>
		<path class="gocontractor-white" d="M204.6,49.6c8.6,0,14.2,3.9,18.1,9l-5.5,3.2c-2.6-3.5-7.2-6.2-12.5-6.2c-9.5,0-16.6,7.3-16.6,17.5
			c0,10.2,7.1,17.6,16.6,17.6c5.1,0,9.4-2.5,11.6-4.5v-8.2h-14.6v-6H223v16.8c-4.4,4.9-10.7,8.1-18.4,8.1
			c-13.1,0-23.7-9.4-23.7-23.7S191.5,49.6,204.6,49.6z"/>
		<path class="gocontractor-white" d="M256.3,49.6c13.6,0,23,10.1,23,23.6c0,13.6-9.4,23.6-23,23.6c-13.6,0-23-10.1-23-23.6
			C233.3,59.6,242.7,49.6,256.3,49.6z M256.3,55.7c-9.8,0-15.9,7.5-15.9,17.5c0,10,6.2,17.5,15.9,17.5c9.7,0,15.9-7.5,15.9-17.5
			C272.3,63.1,266,55.7,256.3,55.7z"/>
		<path class="gocontractor-white" d="M289.9,73.2c0-14,10.2-23.6,23-23.6c7.4,0,12.9,3.2,16.8,8.1l-3.3,2.1c-2.9-4-7.9-6.6-13.5-6.6
			c-10.6,0-18.9,8.1-18.9,20.1c0,11.8,8.3,20.1,18.9,20.1c5.6,0,10.6-2.7,13.5-6.6l3.3,2.1c-4,5-9.4,8.1-16.8,8.1
			C300.1,96.8,289.9,87.2,289.9,73.2z"/>
		<path class="gocontractor-white" d="M361.5,49.6c13.3,0,22.2,10.3,22.2,23.6c0,13.3-8.8,23.6-22.2,23.6c-13.4,0-22.2-10.3-22.2-23.6
			C339.3,59.8,348.1,49.6,361.5,49.6z M361.5,53.1c-11.1,0-18.1,8.5-18.1,20.1c0,11.5,7,20.1,18.1,20.1c11,0,18.1-8.6,18.1-20.1
			C379.6,61.6,372.5,53.1,361.5,53.1z"/>
		<path class="gocontractor-white" d="M400.7,56.6V96h-3.9V50.3h4l28.6,38.9V50.3h3.9V96h-3.8L400.7,56.6z"/>
		<path class="gocontractor-white" d="M459.7,53.9h-14.9v-3.6h33.8v3.6h-14.9V96h-4V53.9z"/>
		<path class="gocontractor-white" d="M504,77.1H494V96h-3.9V50.3h17c7.9,0,13.9,5,13.9,13.3c0,8.3-5.9,12.9-12.7,13.1L521.6,96h-4.7L504,77.1z
			 M506.8,53.9H494v19.6h12.8c6,0,10.1-4.1,10.1-9.9C516.9,57.9,512.8,53.9,506.8,53.9z"/>
		<path class="gocontractor-white" d="M562.8,84.8h-24.3L533.9,96h-4.4l18.7-45.7h4.9L571.7,96h-4.4L562.8,84.8z M539.7,81.2h21.8l-11-27
			L539.7,81.2z"/>
		<path class="gocontractor-white" d="M577.5,73.2c0-14,10.2-23.6,23-23.6c7.4,0,12.9,3.2,16.8,8.1l-3.3,2.1c-2.9-4-7.9-6.6-13.5-6.6
			c-10.6,0-18.9,8.1-18.9,20.1c0,11.8,8.3,20.1,18.9,20.1c5.6,0,10.6-2.7,13.5-6.6l3.3,2.1c-4,5-9.4,8.1-16.8,8.1
			C587.7,96.8,577.5,87.2,577.5,73.2z"/>
		<path class="gocontractor-white" d="M640.3,53.9h-14.9v-3.6h33.8v3.6h-14.9V96h-4V53.9z"/>
		<path class="gocontractor-white" d="M689.1,49.6c13.3,0,22.2,10.3,22.2,23.6c0,13.3-8.8,23.6-22.2,23.6c-13.4,0-22.2-10.3-22.2-23.6
			C667,59.8,675.7,49.6,689.1,49.6z M689.1,53.1c-11.1,0-18.1,8.5-18.1,20.1c0,11.5,7,20.1,18.1,20.1c11,0,18.1-8.6,18.1-20.1
			C707.2,61.6,700.1,53.1,689.1,53.1z"/>
		<path class="gocontractor-white" d="M738.3,77.1h-10.1V96h-3.9V50.3h17c7.9,0,13.9,5,13.9,13.3c0,8.3-5.9,12.9-12.7,13.1L755.9,96h-4.7
			L738.3,77.1z M741.1,53.9h-12.8v19.6h12.8c6,0,10.1-4.1,10.1-9.9C751.2,57.9,747.1,53.9,741.1,53.9z"/>
	</g>
	<g>
		<rect x="36.4" y="17.6" class="gocontractor-blue" width="8.5" height="8.5"/>
		<path class="gocontractor-blue" d="M162.4,48.7c1,4.3,1.5,8.8,1.5,13.4s-0.5,9.1-1.5,13.4c-2.6,11.5-8.4,21.8-16.5,29.9
			c-11.1,11.1-26.4,17.9-43.3,17.9s-32.2-6.9-43.3-17.9c-3.5-3.5-6.6-7.4-9.2-11.7H32v-8.5h14c-1.6-4-2.8-8.3-3.6-12.7
			c-0.2-1.4-0.4-2.8-0.6-4.2H0.4v-8.5h41.3h17.8v-8.5h-17c0.5-2.9,1.2-5.7,2.1-8.5H21.5v-8.5h26.6c1.5-3,3.2-5.8,5.2-8.5h8.5v-8.5
			H54V9.1h18.1c9-5.3,19.6-8.3,30.8-8.3c16.9,0,32.2,6.9,43.3,17.9c3.1,3.1,5.8,6.5,8.2,10.2l-19.7,19.6c-1.7-4.1-4.3-7.7-7.4-10.9
			c-6.2-6.2-14.9-10.1-24.4-10.1s-18.1,3.9-24.4,10.1C72.3,43.8,68.4,52.5,68.4,62c0,3.6,0.6,7.2,1.6,10.4c1.5,4.8,4,9.1,7.3,12.7
			c0.4,0.4,0.8,0.8,1.2,1.2c6.2,6.2,14.9,10.1,24.4,10.1s18.1-3.9,24.4-10.1c3.1-3.1,5.7-6.9,7.4-11h-31c-7.4,0-13.4-6-13.4-13.4
			s6-13.4,13.4-13.4h58.8V48.7z"/>
		<rect x="4.6" y="42.9" class="gocontractor-blue" width="8.5" height="8.5"/>
		<rect x="15.1" y="85.2" class="gocontractor-blue" width="8.5" height="8.5"/>
	</g>
</g>
</svg>
