<?xml version="1.0" encoding="utf-8"?>
<!-- Generator: Adobe Illustrator 23.0.4, SVG Export Plug-In . SVG Version: 6.00 Build 0)  -->
<svg version="1.1" xmlns="http://www.w3.org/2000/svg" xmlns:xlink="http://www.w3.org/1999/xlink" x="0px" y="0px" width="203.3px"
	 height="203.4px" viewBox="0 0 203.3 203.4" style="enable-background:new 0 0 203.3 203.4;" xml:space="preserve">
<style type="text/css">
	.st0{fill:#FFFFFF;}
	.st1{fill:#2978AB;}
</style>
<g id="Layer_1">
</g>
<g id="Layer_2">
</g>
<g id="Layer_3">
</g>
<g id="Layer_4">
</g>
<g id="Layer_5">
</g>
<g id="Layer_6">
</g>
<g id="Layer_7">
</g>
<g id="Layer_8">
	<circle class="st0" cx="101.5" cy="101.9" r="100.4"/>
	<g>
		<rect x="41.3" y="60.8" class="st1" width="7.8" height="7.8"/>
		<path class="st1" d="M156.7,89.3c0.9,3.9,1.4,8.1,1.4,12.3c0,4.2-0.5,8.3-1.4,12.3c-2.4,10.5-7.7,20-15.1,27.4
			c-10.2,10.2-24.2,16.4-39.6,16.4s-29.5-6.3-39.6-16.4c-3.2-3.2-6-6.8-8.4-10.7H37.3v-7.8h12.8c-1.5-3.7-2.6-7.6-3.3-11.6
			c-0.2-1.3-0.4-2.6-0.5-3.8H8.4v-7.8h37.8h16.3v-7.8H46.9c0.5-2.7,1.1-5.2,1.9-7.8H27.7v-7.8h24.3c1.4-2.7,2.9-5.3,4.8-7.8h7.8
			v-7.8h-7.1V53H74c8.2-4.9,17.9-7.6,28.2-7.6c15.5,0,29.5,6.3,39.6,16.4c2.8,2.8,5.3,5.9,7.5,9.3l-18,17.9c-1.6-3.8-3.9-7-6.8-10
			c-5.7-5.7-13.6-9.2-22.3-9.2s-16.6,3.6-22.3,9.2c-5.7,5.7-9.2,13.6-9.2,22.3c0,3.3,0.5,6.6,1.5,9.5c1.4,4.4,3.7,8.3,6.7,11.6
			c0.4,0.4,0.7,0.7,1.1,1.1c5.7,5.7,13.6,9.2,22.3,9.2s16.6-3.6,22.3-9.2c2.8-2.8,5.2-6.3,6.8-10.1h-28.4c-6.8,0-12.3-5.5-12.3-12.3
			c0-6.8,5.5-12.3,12.3-12.3h53.8V89.3z"/>
		<rect x="12.2" y="84" class="st1" width="7.8" height="7.8"/>
		<rect x="21.9" y="122.7" class="st1" width="7.8" height="7.8"/>
	</g>
</g>
</svg>
