<?xml version="1.0" encoding="utf-8"?>
<!-- Generator: Adobe Illustrator 23.0.4, SVG Export Plug-In . SVG Version: 6.00 Build 0)  -->
<svg version="1.1" xmlns="http://www.w3.org/2000/svg" xmlns:xlink="http://www.w3.org/1999/xlink" x="0px" y="0px" width="159.7px"
	 height="119.6px" viewBox="0 0 159.7 119.6" style="enable-background:new 0 0 159.7 119.6;" xml:space="preserve">
<style type="text/css">
	.gocontractor-blue{fill:#2978AB;}
</style>
<g id="Layer_1">
</g>
<g id="Layer_2">
</g>
<g id="Layer_3">
</g>
<g id="Layer_4">
</g>
<g id="Layer_5">
</g>
<g id="Layer_6">
</g>
<g id="Layer_7">
</g>
<g id="Layer_8">
	<g>
		<rect x="35.4" y="17" class="gocontractor-blue" width="8.1" height="8.1"/>
		<path class="gocontractor-blue" d="M156.1,46.8c1,4.1,1.4,8.4,1.4,12.8s-0.5,8.7-1.4,12.8c-2.5,11-8,20.9-15.8,28.6
			c-10.6,10.6-25.3,17.1-41.4,17.1s-30.8-6.6-41.4-17.1c-3.3-3.3-6.3-7.1-8.8-11.2H31.2v-8.1h13.4c-1.5-3.8-2.7-7.9-3.4-12.2
			c-0.2-1.3-0.4-2.7-0.6-4H1v-8.1h39.5h17v-8.1H41.3c0.5-2.8,1.1-5.5,2-8.1H21.2V33h25.5c1.4-2.9,3.1-5.6,5-8.1h8.1v-8.1h-7.5V8.9
			h17.3c8.6-5.1,18.8-7.9,29.5-7.9c16.2,0,30.8,6.6,41.4,17.1c3,3,5.6,6.2,7.8,9.8l-18.8,18.7c-1.6-3.9-4.1-7.4-7.1-10.4
			c-5.9-5.9-14.3-9.7-23.3-9.7s-17.3,3.7-23.3,9.7C69.8,42.1,66,50.4,66,59.5c0,3.4,0.6,6.9,1.5,10c1.4,4.6,3.8,8.7,7,12.2
			c0.4,0.4,0.8,0.8,1.1,1.1c5.9,5.9,14.3,9.7,23.3,9.7s17.3-3.7,23.3-9.7c3-3,5.5-6.6,7.1-10.5H99.8c-7.1,0-12.8-5.7-12.8-12.8
			s5.7-12.8,12.8-12.8h56.3V46.8z"/>
		<rect x="5" y="41.2" class="gocontractor-blue" width="8.1" height="8.1"/>
		<rect x="15" y="81.7" class="gocontractor-blue" width="8.1" height="8.1"/>
	</g>
</g>
</svg>
