<?xml version="1.0" standalone="no"?>
<!DOCTYPE svg PUBLIC "-//W3C//DTD SVG 20010904//EN"
 "http://www.w3.org/TR/2001/REC-SVG-20010904/DTD/svg10.dtd">
<svg version="1.0" xmlns="http://www.w3.org/2000/svg"
 width="260.000000pt" height="260.000000pt" viewBox="0 0 260.000000 260.000000"
 preserveAspectRatio="xMidYMid meet">
<metadata>
Created by potrace 1.11, written by Peter Selinger 2001-2013
</metadata>
<g transform="translate(0.000000,260.000000) scale(0.100000,-0.100000)"
fill="#000000" stroke="none">
<path d="M1115 2560 c-390 -62 -734 -297 -926 -633 -125 -219 -177 -438 -166
-702 15 -387 204 -742 519 -976 105 -78 297 -172 415 -203 192 -51 426 -59
608 -21 501 104 896 499 1000 1000 23 111 30 302 16 419 -36 280 -169 554
-366 751 -168 168 -402 296 -642 350 -82 19 -372 28 -458 15z m363 -570 c156
-38 305 -132 401 -254 l46 -58 -117 -114 -118 -114 164 0 164 0 8 -67 c16
-155 -10 -295 -84 -438 -49 -96 -190 -236 -287 -287 -245 -127 -518 -114 -744
37 -70 46 -165 140 -198 195 l-17 30 -108 0 -108 0 0 50 0 50 81 0 c80 0 81 0
75 23 -24 82 -36 134 -36 149 0 16 -18 18 -242 20 l-243 3 -3 53 -3 52 345 0
346 0 0 45 0 45 -95 0 c-94 0 -95 0 -95 24 0 14 4 36 10 50 l10 26 -135 0
-135 0 0 55 0 55 154 0 154 0 32 50 c31 49 33 50 81 50 l49 0 0 45 0 45 -45 0
-45 0 0 50 0 50 109 0 c61 0 112 4 115 9 9 14 135 62 201 76 90 20 217 18 313
-5z m-838 -230 l0 -50 -55 0 -55 0 0 50 0 50 55 0 55 0 0 -50z m-380 -295 l0
-55 -50 0 -50 0 0 55 0 55 50 0 50 0 0 -55z m130 -495 l0 -50 -55 0 -55 0 0
50 0 50 55 0 55 0 0 -50z"/>
<path d="M1183 1671 c-339 -125 -364 -581 -42 -740 173 -85 397 -26 503 133
20 30 36 57 36 60 0 3 -82 6 -182 6 -101 0 -199 5 -218 10 -20 5 -50 24 -67
42 -77 81 -56 206 41 252 28 13 70 16 230 16 108 0 196 4 196 8 0 19 -64 104
-103 137 -75 64 -140 88 -247 92 -75 3 -106 -1 -147 -16z"/>
</g>
</svg>
